<svg width="100" height="100" viewBox="0 0 100 100" fill="none" xmlns="http://www.w3.org/2000/svg">
<path d="M49.9992 5.55554C41.2089 5.55554 32.616 8.16216 25.3071 13.0458C17.9983 17.9294 12.3017 24.8707 8.93784 32.9918C5.57394 41.113 4.6938 50.0493 6.40869 58.6707C8.12359 67.292 12.3565 75.2113 18.5722 81.427C24.7879 87.6426 32.7071 91.8755 41.3285 93.5904C49.9498 95.3053 58.8861 94.4252 67.0073 91.0613C75.1285 87.6974 82.0697 82.0008 86.9534 74.692C91.837 67.3831 94.4436 58.7903 94.4436 50C94.4436 38.2126 89.7611 26.908 81.4261 18.573C73.0912 10.2381 61.7866 5.55554 49.9992 5.55554ZM50.1658 54.6667C49.6966 54.6703 49.2312 54.5811 48.7966 54.404C48.362 54.227 47.9668 53.9657 47.6337 53.6351C47.3006 53.3046 47.0362 52.9114 46.8558 52.4782C46.6754 52.045 46.5825 51.5804 46.5825 51.1111V24.0278C46.5825 23.0774 46.96 22.166 47.632 21.494C48.304 20.822 49.2155 20.4444 50.1658 20.4444C51.1162 20.4444 52.0276 20.822 52.6996 21.494C53.3716 22.166 53.7492 23.0774 53.7492 24.0278V51.1111C53.7492 51.5804 53.6563 52.045 53.4759 52.4782C53.2954 52.9114 53.0311 53.3046 52.6979 53.6351C52.3648 53.9657 51.9696 54.227 51.535 54.404C51.1004 54.5811 50.6351 54.6703 50.1658 54.6667ZM49.9992 77.1944C44.1486 77.2636 38.429 75.4613 33.6752 72.0503C28.9213 68.6394 25.382 63.7985 23.5736 58.2339C21.7653 52.6694 21.7827 46.6726 23.6233 41.1187C25.4638 35.5648 29.0311 30.7444 33.8047 27.3611C34.6362 26.7685 35.6673 26.5266 36.6756 26.6877C37.6838 26.8488 38.5882 27.4 39.1936 28.2222C39.4891 28.6283 39.7014 29.0888 39.8181 29.5772C39.9348 30.0657 39.9536 30.5724 39.8736 31.0682C39.7935 31.564 39.6162 32.039 39.3517 32.4659C39.0872 32.8928 38.7408 33.2631 38.3325 33.5555C35.5868 35.572 33.4033 38.2582 31.9903 41.3579C30.5772 44.4577 29.9817 47.8677 30.2605 51.2629C30.5393 54.6581 31.6831 57.9253 33.5829 60.753C35.4827 63.5808 38.0751 65.8747 41.113 67.4163C44.1509 68.9578 47.533 69.6955 50.9369 69.5591C54.3408 69.4226 57.653 68.4166 60.5578 66.6368C63.4625 64.8571 65.863 62.363 67.5304 59.3923C69.1977 56.4216 70.0763 53.0733 70.0825 49.6666C70.0732 46.5279 69.3116 43.437 67.8617 40.6532C66.4118 37.8693 64.3157 35.4736 61.7491 33.6667C60.9589 33.043 60.4479 32.1315 60.3282 31.1319C60.2084 30.1323 60.4896 29.126 61.1103 28.3333C61.7239 27.5198 62.6323 26.9796 63.64 26.829C64.6478 26.6783 65.6745 26.9293 66.4992 27.5278C71.2228 30.9498 74.7334 35.7879 76.5214 41.3401C78.3094 46.8923 78.282 52.8698 76.443 58.4054C74.604 63.9409 71.0492 68.7465 66.2942 72.125C61.5393 75.5036 55.8315 77.2792 49.9992 77.1944Z" fill="#06CD3B"/>
</svg>
